<?xml version="1.0" encoding="UTF-8" standalone="no"?>
<!DOCTYPE svg PUBLIC "-//W3C//DTD SVG 1.1//EN"
 "http://www.w3.org/Graphics/SVG/1.1/DTD/svg11.dtd">
<!-- Generated by graphviz version 3.0.0 (20220226.1711)
 -->
<!-- Title: G Pages: 1 -->
<svg width="272pt" height="248pt"
 viewBox="0.00 0.00 272.00 248.00" xmlns="http://www.w3.org/2000/svg" xmlns:xlink="http://www.w3.org/1999/xlink">
<g id="graph0" class="graph" transform="scale(1 1) rotate(0) translate(4 244)">
<title>G</title>
<polygon fill="#eeeeee" stroke="transparent" points="-4,4 -4,-244 268,-244 268,4 -4,4"/>
<g id="clust1" class="cluster">
<title>cluster_inputs</title>
<polygon fill="#eeeeee" stroke="black" stroke-dasharray="5,2" points="8,-156 8,-232 256,-232 256,-156 8,-156"/>
<text text-anchor="middle" x="201.5" y="-163.8" font-family="Times,serif" font-size="14.00">Workflow Inputs</text>
</g>
<g id="clust2" class="cluster">
<title>cluster_outputs</title>
<polygon fill="#eeeeee" stroke="black" stroke-dasharray="5,2" points="59,-8 59,-84 212,-84 212,-8 59,-8"/>
<text text-anchor="middle" x="153" y="-15.8" font-family="Times,serif" font-size="14.00">Workflow Outputs</text>
</g>
<!-- both_input_file -->
<g id="node1" class="node">
<title>both_input_file</title>
<polygon fill="#94ddf4" stroke="black" points="148,-187.5 148,-223.5 248,-223.5 248,-187.5 148,-187.5"/>
<text text-anchor="middle" x="198" y="-201.8" font-family="Times,serif" font-size="14.00">both_input_file</text>
</g>
<!-- step1 -->
<g id="node3" class="node">
<title>step1</title>
<ellipse fill="none" stroke="black" cx="97" cy="-130" rx="29.5" ry="18"/>
<text text-anchor="middle" x="97" y="-126.3" font-family="Times,serif" font-size="14.00">step1</text>
</g>
<!-- both_input_file&#45;&gt;step1 -->
<g id="edge1" class="edge">
<title>both_input_file&#45;&gt;step1</title>
<path fill="none" stroke="black" d="M178.65,-187.34C167.41,-177.69 152.78,-165.68 139,-156 135.04,-153.22 130.76,-150.44 126.51,-147.79"/>
<polygon fill="black" stroke="black" points="128.27,-144.77 117.9,-142.6 124.65,-150.76 128.27,-144.77"/>
</g>
<!-- step2 -->
<g id="node4" class="node">
<title>step2</title>
<ellipse fill="none" stroke="black" cx="174" cy="-130" rx="29.5" ry="18"/>
<text text-anchor="middle" x="174" y="-126.3" font-family="Times,serif" font-size="14.00">step2</text>
</g>
<!-- both_input_file&#45;&gt;step2 -->
<g id="edge2" class="edge">
<title>both_input_file&#45;&gt;step2</title>
<path fill="none" stroke="black" d="M192.43,-187.45C189.5,-178.48 185.85,-167.29 182.57,-157.24"/>
<polygon fill="black" stroke="black" points="185.88,-156.12 179.45,-147.7 179.23,-158.29 185.88,-156.12"/>
</g>
<!-- both_input_string -->
<g id="node2" class="node">
<title>both_input_string</title>
<polygon fill="#94ddf4" stroke="black" points="16.5,-187.5 16.5,-223.5 129.5,-223.5 129.5,-187.5 16.5,-187.5"/>
<text text-anchor="middle" x="73" y="-201.8" font-family="Times,serif" font-size="14.00">both_input_string</text>
</g>
<!-- both_input_string&#45;&gt;step1 -->
<g id="edge3" class="edge">
<title>both_input_string&#45;&gt;step1</title>
<path fill="none" stroke="black" d="M78.57,-187.45C81.5,-178.48 85.15,-167.29 88.43,-157.24"/>
<polygon fill="black" stroke="black" points="91.77,-158.29 91.55,-147.7 85.12,-156.12 91.77,-158.29"/>
</g>
<!-- both_input_string&#45;&gt;step2 -->
<g id="edge4" class="edge">
<title>both_input_string&#45;&gt;step2</title>
<path fill="none" stroke="black" d="M96.16,-187.36C108.79,-178.05 124.72,-166.34 139,-156 141.66,-154.07 144.44,-152.07 147.22,-150.07"/>
<polygon fill="black" stroke="black" points="149.35,-152.86 155.44,-144.19 145.27,-147.16 149.35,-152.86"/>
</g>
<!-- outfile1 -->
<g id="node5" class="node">
<title>outfile1</title>
<polygon fill="#94ddf4" stroke="black" points="67.5,-39.5 67.5,-75.5 126.5,-75.5 126.5,-39.5 67.5,-39.5"/>
<text text-anchor="middle" x="97" y="-53.8" font-family="Times,serif" font-size="14.00">outfile1</text>
</g>
<!-- step1&#45;&gt;outfile1 -->
<g id="edge5" class="edge">
<title>step1&#45;&gt;outfile1</title>
<path fill="none" stroke="black" d="M97,-111.93C97,-104.17 97,-94.78 97,-86.06"/>
<polygon fill="black" stroke="black" points="100.5,-85.9 97,-75.9 93.5,-85.9 100.5,-85.9"/>
</g>
<!-- outfile2 -->
<g id="node6" class="node">
<title>outfile2</title>
<polygon fill="#94ddf4" stroke="black" points="144.5,-39.5 144.5,-75.5 203.5,-75.5 203.5,-39.5 144.5,-39.5"/>
<text text-anchor="middle" x="174" y="-53.8" font-family="Times,serif" font-size="14.00">outfile2</text>
</g>
<!-- step2&#45;&gt;outfile2 -->
<g id="edge6" class="edge">
<title>step2&#45;&gt;outfile2</title>
<path fill="none" stroke="black" d="M174,-111.93C174,-104.17 174,-94.78 174,-86.06"/>
<polygon fill="black" stroke="black" points="177.5,-85.9 174,-75.9 170.5,-85.9 177.5,-85.9"/>
</g>
</g>
</svg>
