<?xml version="1.0" encoding="UTF-8" standalone="no"?>
<!DOCTYPE svg PUBLIC "-//W3C//DTD SVG 1.1//EN"
 "http://www.w3.org/Graphics/SVG/1.1/DTD/svg11.dtd">
<!-- Generated by graphviz version 3.0.0 (20220226.1711)
 -->
<!-- Title: G Pages: 1 -->
<svg width="535pt" height="248pt"
 viewBox="0.00 0.00 535.00 248.00" xmlns="http://www.w3.org/2000/svg" xmlns:xlink="http://www.w3.org/1999/xlink">
<g id="graph0" class="graph" transform="scale(1 1) rotate(0) translate(4 244)">
<title>G</title>
<polygon fill="#eeeeee" stroke="transparent" points="-4,4 -4,-244 531,-244 531,4 -4,4"/>
<g id="clust1" class="cluster">
<title>cluster_inputs</title>
<polygon fill="#eeeeee" stroke="black" stroke-dasharray="5,2" points="8,-156 8,-232 519,-232 519,-156 8,-156"/>
<text text-anchor="middle" x="464.5" y="-163.8" font-family="Times,serif" font-size="14.00">Workflow Inputs</text>
</g>
<g id="clust2" class="cluster">
<title>cluster_outputs</title>
<polygon fill="#eeeeee" stroke="black" stroke-dasharray="5,2" points="216,-8 216,-84 334,-84 334,-8 216,-8"/>
<text text-anchor="middle" x="275" y="-15.8" font-family="Times,serif" font-size="14.00">Workflow Outputs</text>
</g>
<!-- wf_file_default -->
<g id="node1" class="node">
<title>wf_file_default</title>
<polygon fill="#94ddf4" stroke="black" points="411,-187.5 411,-223.5 511,-223.5 511,-187.5 411,-187.5"/>
<text text-anchor="middle" x="461" y="-201.8" font-family="Times,serif" font-size="14.00">wf_file_default</text>
</g>
<!-- wf_print_output -->
<g id="node5" class="node">
<title>wf_print_output</title>
<ellipse fill="none" stroke="black" cx="275" cy="-130" rx="67.69" ry="18"/>
<text text-anchor="middle" x="275" y="-126.3" font-family="Times,serif" font-size="14.00">wf_print_output</text>
</g>
<!-- wf_file_default&#45;&gt;wf_print_output -->
<g id="edge1" class="edge">
<title>wf_file_default&#45;&gt;wf_print_output</title>
<path fill="none" stroke="black" d="M444.52,-187.12C433.48,-176.52 418.07,-163.59 402,-156 385.03,-147.99 365.63,-142.54 347.17,-138.84"/>
<polygon fill="black" stroke="black" points="347.81,-135.4 337.34,-137.01 346.53,-142.28 347.81,-135.4"/>
</g>
<!-- wf_file_required -->
<g id="node2" class="node">
<title>wf_file_required</title>
<polygon fill="#94ddf4" stroke="black" points="285.5,-187.5 285.5,-223.5 392.5,-223.5 392.5,-187.5 285.5,-187.5"/>
<text text-anchor="middle" x="339" y="-201.8" font-family="Times,serif" font-size="14.00">wf_file_required</text>
</g>
<!-- wf_file_required&#45;&gt;wf_print_output -->
<g id="edge2" class="edge">
<title>wf_file_required&#45;&gt;wf_print_output</title>
<path fill="none" stroke="black" d="M324.16,-187.45C315.86,-177.92 305.37,-165.88 296.22,-155.37"/>
<polygon fill="black" stroke="black" points="298.75,-152.94 289.54,-147.7 293.47,-157.54 298.75,-152.94"/>
</g>
<!-- wf_string_default -->
<g id="node3" class="node">
<title>wf_string_default</title>
<polygon fill="#94ddf4" stroke="black" points="154.5,-187.5 154.5,-223.5 267.5,-223.5 267.5,-187.5 154.5,-187.5"/>
<text text-anchor="middle" x="211" y="-201.8" font-family="Times,serif" font-size="14.00">wf_string_default</text>
</g>
<!-- wf_string_default&#45;&gt;wf_print_output -->
<g id="edge3" class="edge">
<title>wf_string_default&#45;&gt;wf_print_output</title>
<path fill="none" stroke="black" d="M225.84,-187.45C234.14,-177.92 244.63,-165.88 253.78,-155.37"/>
<polygon fill="black" stroke="black" points="256.53,-157.54 260.46,-147.7 251.25,-152.94 256.53,-157.54"/>
</g>
<!-- wf_string_required -->
<g id="node4" class="node">
<title>wf_string_required</title>
<polygon fill="#94ddf4" stroke="black" points="16,-187.5 16,-223.5 136,-223.5 136,-187.5 16,-187.5"/>
<text text-anchor="middle" x="76" y="-201.8" font-family="Times,serif" font-size="14.00">wf_string_required</text>
</g>
<!-- wf_string_required&#45;&gt;wf_print_output -->
<g id="edge4" class="edge">
<title>wf_string_required&#45;&gt;wf_print_output</title>
<path fill="none" stroke="black" d="M95.8,-187.43C109.15,-176.81 127.61,-163.75 146,-156 163.99,-148.42 184.37,-143.12 203.53,-139.41"/>
<polygon fill="black" stroke="black" points="204.21,-142.85 213.42,-137.62 202.96,-135.96 204.21,-142.85"/>
</g>
<!-- out_file -->
<g id="node6" class="node">
<title>out_file</title>
<polygon fill="#94ddf4" stroke="black" points="245.5,-39.5 245.5,-75.5 304.5,-75.5 304.5,-39.5 245.5,-39.5"/>
<text text-anchor="middle" x="275" y="-53.8" font-family="Times,serif" font-size="14.00">out_file</text>
</g>
<!-- wf_print_output&#45;&gt;out_file -->
<g id="edge5" class="edge">
<title>wf_print_output&#45;&gt;out_file</title>
<path fill="none" stroke="black" d="M275,-111.93C275,-104.17 275,-94.78 275,-86.06"/>
<polygon fill="black" stroke="black" points="278.5,-85.9 275,-75.9 271.5,-85.9 278.5,-85.9"/>
</g>
</g>
</svg>
