<?xml version="1.0" encoding="UTF-8" standalone="no"?>
<!DOCTYPE svg PUBLIC "-//W3C//DTD SVG 1.1//EN"
 "http://www.w3.org/Graphics/SVG/1.1/DTD/svg11.dtd">
<!-- Generated by graphviz version 3.0.0 (20220226.1711)
 -->
<!-- Title: G Pages: 1 -->
<svg width="273pt" height="248pt"
 viewBox="0.00 0.00 273.00 248.00" xmlns="http://www.w3.org/2000/svg" xmlns:xlink="http://www.w3.org/1999/xlink">
<g id="graph0" class="graph" transform="scale(1 1) rotate(0) translate(4 244)">
<title>G</title>
<polygon fill="#eeeeee" stroke="transparent" points="-4,4 -4,-244 269,-244 269,4 -4,4"/>
<g id="clust2" class="cluster">
<title>cluster_outputs</title>
<polygon fill="#eeeeee" stroke="black" stroke-dasharray="5,2" points="38,-8 38,-84 191,-84 191,-8 38,-8"/>
<text text-anchor="middle" x="132" y="-15.8" font-family="Times,serif" font-size="14.00">Workflow Outputs</text>
</g>
<g id="clust1" class="cluster">
<title>cluster_inputs</title>
<polygon fill="#eeeeee" stroke="black" stroke-dasharray="5,2" points="8,-156 8,-232 257,-232 257,-156 8,-156"/>
<text text-anchor="middle" x="202.5" y="-163.8" font-family="Times,serif" font-size="14.00">Workflow Inputs</text>
</g>
<!-- wf_main_input1 -->
<g id="node1" class="node">
<title>wf_main_input1</title>
<polygon fill="#94ddf4" stroke="black" points="141.5,-187.5 141.5,-223.5 248.5,-223.5 248.5,-187.5 141.5,-187.5"/>
<text text-anchor="middle" x="195" y="-201.8" font-family="Times,serif" font-size="14.00">wf_main_input1</text>
</g>
<!-- step -->
<g id="node3" class="node">
<title>step</title>
<ellipse fill="none" stroke="black" cx="106" cy="-130" rx="27" ry="18"/>
<text text-anchor="middle" x="106" y="-126.3" font-family="Times,serif" font-size="14.00">step</text>
</g>
<!-- wf_main_input1&#45;&gt;step -->
<g id="edge1" class="edge">
<title>wf_main_input1&#45;&gt;step</title>
<path fill="none" stroke="black" d="M174.36,-187.45C161.26,-176.64 144.25,-162.59 130.47,-151.21"/>
<polygon fill="black" stroke="black" points="132.32,-148.19 122.38,-144.52 127.86,-153.59 132.32,-148.19"/>
</g>
<!-- wf_main_input2 -->
<g id="node2" class="node">
<title>wf_main_input2</title>
<polygon fill="#94ddf4" stroke="black" points="16.5,-187.5 16.5,-223.5 123.5,-223.5 123.5,-187.5 16.5,-187.5"/>
<text text-anchor="middle" x="70" y="-201.8" font-family="Times,serif" font-size="14.00">wf_main_input2</text>
</g>
<!-- wf_main_input2&#45;&gt;step -->
<g id="edge2" class="edge">
<title>wf_main_input2&#45;&gt;step</title>
<path fill="none" stroke="black" d="M78.35,-187.45C82.82,-178.33 88.42,-166.9 93.41,-156.71"/>
<polygon fill="black" stroke="black" points="96.69,-157.97 97.94,-147.45 90.4,-154.89 96.69,-157.97"/>
</g>
<!-- outfile1 -->
<g id="node4" class="node">
<title>outfile1</title>
<polygon fill="#94ddf4" stroke="black" points="123.5,-39.5 123.5,-75.5 182.5,-75.5 182.5,-39.5 123.5,-39.5"/>
<text text-anchor="middle" x="153" y="-53.8" font-family="Times,serif" font-size="14.00">outfile1</text>
</g>
<!-- step&#45;&gt;outfile1 -->
<g id="edge3" class="edge">
<title>step&#45;&gt;outfile1</title>
<path fill="none" stroke="black" d="M116.43,-113.35C122.15,-104.78 129.37,-93.94 135.89,-84.17"/>
<polygon fill="black" stroke="black" points="138.98,-85.84 141.61,-75.58 133.15,-81.96 138.98,-85.84"/>
</g>
<!-- outfile2 -->
<g id="node5" class="node">
<title>outfile2</title>
<polygon fill="#94ddf4" stroke="black" points="46.5,-39.5 46.5,-75.5 105.5,-75.5 105.5,-39.5 46.5,-39.5"/>
<text text-anchor="middle" x="76" y="-53.8" font-family="Times,serif" font-size="14.00">outfile2</text>
</g>
<!-- step&#45;&gt;outfile2 -->
<g id="edge4" class="edge">
<title>step&#45;&gt;outfile2</title>
<path fill="none" stroke="black" d="M98.89,-112.29C95.43,-104.16 91.18,-94.18 87.29,-85.04"/>
<polygon fill="black" stroke="black" points="90.4,-83.41 83.27,-75.58 83.96,-86.15 90.4,-83.41"/>
</g>
</g>
</svg>
