<?xml version="1.0" encoding="UTF-8" standalone="no"?>
<!DOCTYPE svg PUBLIC "-//W3C//DTD SVG 1.1//EN"
 "http://www.w3.org/Graphics/SVG/1.1/DTD/svg11.dtd">
<!-- Generated by graphviz version 3.0.0 (20220226.1711)
 -->
<!-- Title: G Pages: 1 -->
<svg width="426pt" height="248pt"
 viewBox="0.00 0.00 426.00 248.00" xmlns="http://www.w3.org/2000/svg" xmlns:xlink="http://www.w3.org/1999/xlink">
<g id="graph0" class="graph" transform="scale(1 1) rotate(0) translate(4 244)">
<title>G</title>
<polygon fill="#eeeeee" stroke="transparent" points="-4,4 -4,-244 422,-244 422,4 -4,4"/>
<g id="clust1" class="cluster">
<title>cluster_inputs</title>
<polygon fill="#eeeeee" stroke="black" stroke-dasharray="5,2" points="8,-156 8,-232 410,-232 410,-156 8,-156"/>
<text text-anchor="middle" x="355.5" y="-163.8" font-family="Times,serif" font-size="14.00">Workflow Inputs</text>
</g>
<g id="clust2" class="cluster">
<title>cluster_outputs</title>
<polygon fill="#eeeeee" stroke="black" stroke-dasharray="5,2" points="131,-8 131,-84 284,-84 284,-8 131,-8"/>
<text text-anchor="middle" x="225" y="-15.8" font-family="Times,serif" font-size="14.00">Workflow Outputs</text>
</g>
<!-- main_input1 -->
<g id="node1" class="node">
<title>main_input1</title>
<polygon fill="#94ddf4" stroke="black" points="114,-187.5 114,-223.5 200,-223.5 200,-187.5 114,-187.5"/>
<text text-anchor="middle" x="157" y="-201.8" font-family="Times,serif" font-size="14.00">main_input1</text>
</g>
<!-- step1 -->
<g id="node5" class="node">
<title>step1</title>
<ellipse fill="none" stroke="black" cx="157" cy="-130" rx="29.5" ry="18"/>
<text text-anchor="middle" x="157" y="-126.3" font-family="Times,serif" font-size="14.00">step1</text>
</g>
<!-- main_input1&#45;&gt;step1 -->
<g id="edge1" class="edge">
<title>main_input1&#45;&gt;step1</title>
<path fill="none" stroke="black" d="M157,-187.45C157,-178.8 157,-168.07 157,-158.29"/>
<polygon fill="black" stroke="black" points="160.5,-158.21 157,-148.21 153.5,-158.21 160.5,-158.21"/>
</g>
<!-- step_input1 -->
<g id="node2" class="node">
<title>step_input1</title>
<polygon fill="#94ddf4" stroke="black" points="16,-187.5 16,-223.5 96,-223.5 96,-187.5 16,-187.5"/>
<text text-anchor="middle" x="56" y="-201.8" font-family="Times,serif" font-size="14.00">step_input1</text>
</g>
<!-- step_input1&#45;&gt;step1 -->
<g id="edge2" class="edge">
<title>step_input1&#45;&gt;step1</title>
<path fill="none" stroke="black" d="M70.68,-187.34C79.85,-177.33 92.28,-164.97 105,-156 110.78,-151.93 117.32,-148.2 123.76,-144.94"/>
<polygon fill="black" stroke="black" points="125.53,-147.98 133.04,-140.51 122.51,-141.66 125.53,-147.98"/>
</g>
<!-- main_input2 -->
<g id="node3" class="node">
<title>main_input2</title>
<polygon fill="#94ddf4" stroke="black" points="316,-187.5 316,-223.5 402,-223.5 402,-187.5 316,-187.5"/>
<text text-anchor="middle" x="359" y="-201.8" font-family="Times,serif" font-size="14.00">main_input2</text>
</g>
<!-- step2 -->
<g id="node6" class="node">
<title>step2</title>
<ellipse fill="none" stroke="black" cx="258" cy="-130" rx="29.5" ry="18"/>
<text text-anchor="middle" x="258" y="-126.3" font-family="Times,serif" font-size="14.00">step2</text>
</g>
<!-- main_input2&#45;&gt;step2 -->
<g id="edge3" class="edge">
<title>main_input2&#45;&gt;step2</title>
<path fill="none" stroke="black" d="M342.71,-187.05C332.94,-177.19 319.94,-165.07 307,-156 301.76,-152.33 295.92,-148.87 290.14,-145.76"/>
<polygon fill="black" stroke="black" points="291.7,-142.63 281.2,-141.19 288.51,-148.86 291.7,-142.63"/>
</g>
<!-- step_input2 -->
<g id="node4" class="node">
<title>step_input2</title>
<polygon fill="#94ddf4" stroke="black" points="218,-187.5 218,-223.5 298,-223.5 298,-187.5 218,-187.5"/>
<text text-anchor="middle" x="258" y="-201.8" font-family="Times,serif" font-size="14.00">step_input2</text>
</g>
<!-- step_input2&#45;&gt;step2 -->
<g id="edge4" class="edge">
<title>step_input2&#45;&gt;step2</title>
<path fill="none" stroke="black" d="M258,-187.45C258,-178.8 258,-168.07 258,-158.29"/>
<polygon fill="black" stroke="black" points="261.5,-158.21 258,-148.21 254.5,-158.21 261.5,-158.21"/>
</g>
<!-- outfile1 -->
<g id="node7" class="node">
<title>outfile1</title>
<polygon fill="#94ddf4" stroke="black" points="139.5,-39.5 139.5,-75.5 198.5,-75.5 198.5,-39.5 139.5,-39.5"/>
<text text-anchor="middle" x="169" y="-53.8" font-family="Times,serif" font-size="14.00">outfile1</text>
</g>
<!-- step1&#45;&gt;outfile1 -->
<g id="edge5" class="edge">
<title>step1&#45;&gt;outfile1</title>
<path fill="none" stroke="black" d="M159.9,-111.93C161.24,-104.08 162.86,-94.58 164.36,-85.77"/>
<polygon fill="black" stroke="black" points="167.81,-86.34 166.04,-75.9 160.91,-85.17 167.81,-86.34"/>
</g>
<!-- outfile2 -->
<g id="node8" class="node">
<title>outfile2</title>
<polygon fill="#94ddf4" stroke="black" points="216.5,-39.5 216.5,-75.5 275.5,-75.5 275.5,-39.5 216.5,-39.5"/>
<text text-anchor="middle" x="246" y="-53.8" font-family="Times,serif" font-size="14.00">outfile2</text>
</g>
<!-- step2&#45;&gt;outfile2 -->
<g id="edge6" class="edge">
<title>step2&#45;&gt;outfile2</title>
<path fill="none" stroke="black" d="M255.1,-111.93C253.76,-104.08 252.14,-94.58 250.64,-85.77"/>
<polygon fill="black" stroke="black" points="254.09,-85.17 248.96,-75.9 247.19,-86.34 254.09,-85.17"/>
</g>
</g>
</svg>
