<?xml version="1.0" encoding="UTF-8" standalone="no"?>
<!DOCTYPE svg PUBLIC "-//W3C//DTD SVG 1.1//EN"
 "http://www.w3.org/Graphics/SVG/1.1/DTD/svg11.dtd">
<!-- Generated by graphviz version 3.0.0 (20220226.1711)
 -->
<!-- Title: G Pages: 1 -->
<svg width="140pt" height="136pt"
 viewBox="0.00 0.00 140.00 136.00" xmlns="http://www.w3.org/2000/svg" xmlns:xlink="http://www.w3.org/1999/xlink">
<g id="graph0" class="graph" transform="scale(1 1) rotate(0) translate(4 132)">
<title>G</title>
<polygon fill="#eeeeee" stroke="transparent" points="-4,4 -4,-132 136,-132 136,4 -4,4"/>
<g id="clust1" class="cluster">
<title>cluster_inputs</title>
<polygon fill="#eeeeee" stroke="black" stroke-dasharray="5,2" points="8,-44 8,-120 124,-120 124,-44 8,-44"/>
<text text-anchor="middle" x="69.5" y="-51.8" font-family="Times,serif" font-size="14.00">Workflow Inputs</text>
</g>
<!-- zenodo_dataset -->
<g id="node1" class="node">
<title>zenodo_dataset</title>
<polygon fill="#94ddf4" stroke="black" points="16,-75.5 16,-111.5 116,-111.5 116,-75.5 16,-75.5"/>
<text text-anchor="middle" x="66" y="-89.8" font-family="Times,serif" font-size="14.00">zenodo_dataset</text>
</g>
<!-- tool -->
<g id="node2" class="node">
<title>tool</title>
<ellipse fill="none" stroke="black" cx="66" cy="-18" rx="27" ry="18"/>
<text text-anchor="middle" x="66" y="-14.3" font-family="Times,serif" font-size="14.00">tool</text>
</g>
<!-- zenodo_dataset&#45;&gt;tool -->
<g id="edge1" class="edge">
<title>zenodo_dataset&#45;&gt;tool</title>
<path fill="none" stroke="black" d="M66,-75.45C66,-66.8 66,-56.07 66,-46.29"/>
<polygon fill="black" stroke="black" points="69.5,-46.21 66,-36.21 62.5,-46.21 69.5,-46.21"/>
</g>
</g>
</svg>
